<svg width="40" height="40" viewBox="0 0 40 40" fill="none" xmlns="http://www.w3.org/2000/svg">
<circle cx="19.8877" cy="20" r="19.3008" fill="#C47879"/>
<path d="M28.8869 31.0833L26.0682 28.2875C25.7932 28.4556 25.4992 28.5818 25.1863 28.6661C24.8734 28.7504 24.5486 28.7923 24.2119 28.7917C23.2036 28.7917 22.3404 28.4326 21.6223 27.7146C20.9043 26.9965 20.5452 26.1333 20.5452 25.125C20.5452 24.1167 20.9043 23.2535 21.6223 22.5354C22.3404 21.8174 23.2036 21.4583 24.2119 21.4583C25.2202 21.4583 26.0834 21.8174 26.8015 22.5354C27.5196 23.2535 27.8786 24.1167 27.8786 25.125C27.8786 25.4764 27.8327 25.8088 27.7411 26.1223C27.6494 26.4358 27.5196 26.7298 27.3515 27.0042L30.1702 29.8L28.8869 31.0833ZM14.1286 28.7917C13.1202 28.7917 12.2571 28.4326 11.539 27.7146C10.8209 26.9965 10.4619 26.1333 10.4619 25.125C10.4619 24.1167 10.8209 23.2535 11.539 22.5354C12.2571 21.8174 13.1202 21.4583 14.1286 21.4583C15.1369 21.4583 16.0001 21.8174 16.7182 22.5354C17.4362 23.2535 17.7952 24.1167 17.7952 25.125C17.7952 26.1333 17.4362 26.9965 16.7182 27.7146C16.0001 28.4326 15.1369 28.7917 14.1286 28.7917ZM24.2119 26.9583C24.7161 26.9583 25.1478 26.779 25.5072 26.4203C25.8665 26.0615 26.0459 25.6298 26.0452 25.125C26.0446 24.6202 25.8653 24.1888 25.5072 23.8307C25.1491 23.4726 24.7173 23.2929 24.2119 23.2917C23.7065 23.2904 23.2751 23.4701 22.9176 23.8307C22.5601 24.1912 22.3804 24.6227 22.3786 25.125C22.3767 25.6273 22.5564 26.0591 22.9176 26.4203C23.2787 26.7814 23.7102 26.9608 24.2119 26.9583ZM14.1286 18.7083C13.1202 18.7083 12.2571 18.3493 11.539 17.6312C10.8209 16.9132 10.4619 16.05 10.4619 15.0417C10.4619 14.0333 10.8209 13.1701 11.539 12.4521C12.2571 11.734 13.1202 11.375 14.1286 11.375C15.1369 11.375 16.0001 11.734 16.7182 12.4521C17.4362 13.1701 17.7952 14.0333 17.7952 15.0417C17.7952 16.05 17.4362 16.9132 16.7182 17.6312C16.0001 18.3493 15.1369 18.7083 14.1286 18.7083ZM24.2119 18.7083C23.2036 18.7083 22.3404 18.3493 21.6223 17.6312C20.9043 16.9132 20.5452 16.05 20.5452 15.0417C20.5452 14.0333 20.9043 13.1701 21.6223 12.4521C22.3404 11.734 23.2036 11.375 24.2119 11.375C25.2202 11.375 26.0834 11.734 26.8015 12.4521C27.5196 13.1701 27.8786 14.0333 27.8786 15.0417C27.8786 16.05 27.5196 16.9132 26.8015 17.6312C26.0834 18.3493 25.2202 18.7083 24.2119 18.7083Z" fill="white"/>
</svg>
