<svg width="40" height="40" viewBox="0 0 40 40" fill="none" xmlns="http://www.w3.org/2000/svg">
<circle cx="20.1709" cy="20.1433" r="19.3008" fill="#699FA5"/>
<path d="M14.64 21.2802C17.1805 21.2802 19.24 19.2178 19.24 16.6736C19.24 14.1294 17.1805 12.0669 14.64 12.0669C12.0995 12.0669 10.04 14.1294 10.04 16.6736C10.04 19.2178 12.0995 21.2802 14.64 21.2802Z" fill="white" stroke="white" stroke-width="0.5" stroke-miterlimit="10"/>
<path d="M14.1056 21.3033C13.0543 22.7493 11.6396 23.3333 9.63965 23.3333C10.5976 22.6946 11.5556 21.4439 11.9276 20.4609L14.1056 21.3033Z" fill="white"/>
<path d="M25.3061 26.3599C27.8466 26.3599 29.9061 24.3004 29.9061 21.7599C29.9061 19.2194 27.8466 17.1599 25.3061 17.1599C22.7655 17.1599 20.7061 19.2194 20.7061 21.7599C20.7061 24.3004 22.7655 26.3599 25.3061 26.3599Z" fill="white" stroke="white" stroke-width="0.5" stroke-miterlimit="10"/>
<path d="M25.8398 26.3965C26.8912 27.8425 28.3058 28.4265 30.3058 28.4265C29.3478 27.7879 28.3898 26.5372 28.0178 25.5542L25.8398 26.3965Z" fill="white"/>
<path d="M12.3063 17.3333C12.6745 17.3333 12.973 17.0349 12.973 16.6667C12.973 16.2985 12.6745 16 12.3063 16C11.9381 16 11.6396 16.2985 11.6396 16.6667C11.6396 17.0349 11.9381 17.3333 12.3063 17.3333Z" fill="#6255B4"/>
<path d="M14.6393 17.3333C15.0075 17.3333 15.306 17.0349 15.306 16.6667C15.306 16.2985 15.0075 16 14.6393 16C14.2711 16 13.9727 16.2985 13.9727 16.6667C13.9727 17.0349 14.2711 17.3333 14.6393 17.3333Z" fill="#6255B4"/>
<path d="M16.9723 17.3333C17.3405 17.3333 17.639 17.0349 17.639 16.6667C17.639 16.2985 17.3405 16 16.9723 16C16.6041 16 16.3057 16.2985 16.3057 16.6667C16.3057 17.0349 16.6041 17.3333 16.9723 17.3333Z" fill="#6255B4"/>
<path d="M11.9276 20.4609C11.5556 21.4443 10.5976 22.6946 9.63965 23.3333C11.6396 23.3333 13.0543 22.7493 14.1056 21.3033" stroke="#6255B4" stroke-width="0.5" stroke-miterlimit="10" stroke-linecap="round" stroke-linejoin="round"/>
<path d="M15.3977 21.272C17.6143 20.91 19.306 18.9857 19.306 16.6667C19.306 14.0893 17.2167 12 14.6393 12C12.062 12 9.97266 14.0893 9.97266 16.6667C9.97266 17.778 10.361 18.7983 11.0093 19.6" stroke="#6255B4" stroke-width="0.5" stroke-miterlimit="10" stroke-linecap="round"/>
<path d="M27.6393 22.4266C28.0075 22.4266 28.306 22.1281 28.306 21.7599C28.306 21.3917 28.0075 21.0933 27.6393 21.0933C27.2711 21.0933 26.9727 21.3917 26.9727 21.7599C26.9727 22.1281 27.2711 22.4266 27.6393 22.4266Z" fill="#6255B4"/>
<path d="M25.3063 22.4266C25.6745 22.4266 25.973 22.1281 25.973 21.7599C25.973 21.3917 25.6745 21.0933 25.3063 21.0933C24.9381 21.0933 24.6396 21.3917 24.6396 21.7599C24.6396 22.1281 24.9381 22.4266 25.3063 22.4266Z" fill="#6255B4"/>
<path d="M22.9723 22.4266C23.3405 22.4266 23.639 22.1281 23.639 21.7599C23.639 21.3917 23.3405 21.0933 22.9723 21.0933C22.6041 21.0933 22.3057 21.3917 22.3057 21.7599C22.3057 22.1281 22.6041 22.4266 22.9723 22.4266Z" fill="#6255B4"/>
<path d="M28.0178 25.5544C28.3898 26.5378 29.3478 27.7881 30.3058 28.4268C28.3058 28.4268 26.8912 27.8428 25.8398 26.3968" stroke="#6255B4" stroke-width="0.5" stroke-miterlimit="10" stroke-linecap="round" stroke-linejoin="round"/>
<path d="M24.548 26.3653C22.3313 26.0033 20.6396 24.0789 20.6396 21.7599C20.6396 19.1826 22.729 17.0933 25.3063 17.0933C27.8836 17.0933 29.973 19.1826 29.973 21.7599C29.973 22.8713 29.5847 23.8916 28.9363 24.6933" stroke="#6255B4" stroke-width="0.5" stroke-miterlimit="10" stroke-linecap="round"/>
</svg>
