<svg width="50" height="50" viewBox="0 0 50 50" fill="none" xmlns="http://www.w3.org/2000/svg">
<circle cx="24.9771" cy="25.0549" r="24.4126" fill="#48A9F8"/>
<path d="M30.0994 15.7011H30.7993C30.7993 15.5155 30.7255 15.3375 30.5943 15.2062C30.463 15.075 30.285 15.0012 30.0994 15.0012V15.7011ZM20.3005 35.2988L19.805 35.7944C19.87 35.8596 19.9472 35.9113 20.0323 35.9465C20.1173 35.9818 20.2085 36 20.3005 36C20.3926 36 20.4837 35.9818 20.5688 35.9465C20.6538 35.9113 20.731 35.8596 20.7961 35.7944L20.3005 35.2988ZM27.9996 16.4011H30.0994V15.0012H27.9996V16.4011ZM29.3994 15.7011V24.1001H30.7993V15.7011H29.3994ZM27.9996 24.8001H32.1991V23.4002H27.9996V24.8001ZM30.6061 26.1999H29.3994V27.5997H30.6061V26.1999ZM32.1627 31.3205L32.8374 29.2963L31.5104 28.854L30.8357 30.8781L32.1627 31.3205ZM29.3994 31.7992H31.4992V30.3994H29.3994V31.7992ZM30.7629 35.52L32.1627 31.3205L30.8357 30.8781L29.4358 35.0777L30.7629 35.52ZM26.5998 28.9996C26.5998 29.7421 26.8947 30.4542 27.4198 30.9792C27.9448 31.5043 28.6569 31.7992 29.3994 31.7992V30.3994C29.0282 30.3994 28.6721 30.2519 28.4096 29.9894C28.1471 29.7269 27.9996 29.3708 27.9996 28.9996H26.5998ZM29.3994 26.1999C28.6569 26.1999 27.9448 26.4949 27.4198 27.0199C26.8947 27.5449 26.5998 28.2571 26.5998 28.9996H27.9996C27.9996 28.6283 28.1471 28.2723 28.4096 28.0097C28.6721 27.7472 29.0282 27.5997 29.3994 27.5997V26.1999ZM30.6061 27.5997C30.7572 27.5995 30.9062 27.6352 31.0407 27.7039C31.1753 27.7726 31.2916 27.8724 31.3799 27.9949C31.4683 28.1175 31.5262 28.2593 31.5489 28.4087C31.5716 28.5581 31.5584 28.7107 31.5104 28.854L32.8374 29.2963C32.9555 28.9427 32.9878 28.5661 32.9317 28.1976C32.8756 27.8291 32.7326 27.4792 32.5147 27.1767C32.2968 26.8743 32.01 26.628 31.6782 26.4582C31.3463 26.2883 30.9789 26.1998 30.6061 26.1999V27.5997ZM20.7961 35.7944L24.9956 31.5949L24.0045 30.6038L19.805 34.8033L20.7961 35.7944ZM20.7961 34.8033L16.5966 30.6038L15.6055 31.5949L19.805 35.7944L20.7961 34.8033ZM19.6006 15.0012V35.2988H21.0004V15.0012H19.6006Z" fill="white"/>
</svg>
